<svg xmlns="http://www.w3.org/2000/svg" version="1.1" viewBox="77.824 397.312 874.496 210.944" style="max-height: 500px"
     width="874.496" height="210.944">
    <path transform="translate(142.572265625,419.2666015625)" fill="#1DF1D8"
          d="M0 0 C5.94722387 5.39954167 9.48426989 12.28341548 13.30273438 19.23339844 C14.01538482 20.50923508 14.7294255 21.78429612 15.44482422 23.05859375 C16.50029699 24.93870834 17.55515828 26.81911454 18.60574341 28.70196533 C21.01109412 33.01161015 23.4819823 37.27077445 26.05273438 41.48339844 C34.34950745 55.16993129 42.3163337 69.05587245 50.30053711 82.92626953 C57.38629861 95.23560624 64.52662092 107.48942867 72.04882812 119.53808594 C73.00776978 121.08556519 73.00776978 121.08556519 73.98608398 122.66430664 C75.25589022 124.71231425 76.53374016 126.755362 77.82055664 128.79272461 C78.40248779 129.73349854 78.98441895 130.67427246 79.58398438 131.64355469 C80.10798828 132.48023682 80.63199219 133.31691895 81.171875 134.17895508 C82.60156183 137.08696699 83.15137454 139.51038964 83.42773438 142.73339844 C79.33408503 152.66017113 72.3374592 162.16992852 62.42773438 166.73339844 C52.07784599 170.46804348 43.2500717 170.75606692 33.17773438 166.17089844 C23.42972721 161.41807174 18.56785569 152.04191267 13.49023438 142.92089844 C12.17016071 140.59057782 10.84851433 138.26120192 9.52539062 135.93261719 C9.01995224 135.03982559 9.01995224 135.03982559 8.50430298 134.1289978 C4.90243559 127.77681621 1.16824352 121.5047357 -2.57226562 115.23339844 C-8.50836636 105.25821215 -14.34613438 95.23092336 -20.12988281 85.16674805 C-24.14792941 78.18196218 -28.21346732 71.22765691 -32.32226562 64.29589844 C-33.37570016 62.51467748 -34.42908643 60.73342799 -35.48242188 58.95214844 C-37.04106387 56.31710167 -38.60198756 53.68353174 -40.16943359 51.05371094 C-41.70681861 48.4720019 -43.23417406 45.8845891 -44.75976562 43.29589844 C-45.21770508 42.532854 -45.67564453 41.76980957 -46.14746094 40.98364258 C-51.38937854 32.04219464 -53.05920057 23.74771256 -50.44726562 13.67089844 C-47.61531886 5.25336082 -42.89868591 0.16910446 -35.13867188 -4.07519531 C-23.46199971 -9.49587265 -10.0908406 -8.12908091 0 0 Z"/>
    <path transform="translate(742.3125,415.8671875)" fill="#FFFFFF"
          d="M0 0 C1.07507813 -0.00128906 2.15015625 -0.00257813 3.2578125 -0.00390625 C4.38960937 -0.00003906 5.52140625 0.00382812 6.6875 0.0078125 C7.81929687 0.00394531 8.95109375 0.00007813 10.1171875 -0.00390625 C11.19226563 -0.00261719 12.26734375 -0.00132812 13.375 0 C14.86580078 0.00169189 14.86580078 0.00169189 16.38671875 0.00341797 C18.6875 0.1328125 18.6875 0.1328125 19.6875 1.1328125 C19.78069449 2.6676422 19.804958 4.20673332 19.80102539 5.74438477 C19.80094986 6.72532608 19.80087433 7.7062674 19.80079651 8.7169342 C19.79563522 9.7835881 19.79047394 10.850242 19.78515625 11.94921875 C19.7837413 13.03541 19.78232635 14.12160126 19.78086853 15.2407074 C19.77525048 18.72560325 19.76269492 22.21043592 19.75 25.6953125 C19.74498733 28.05143137 19.74042402 30.40755124 19.73632812 32.76367188 C19.72527519 38.55340714 19.70851951 44.34310531 19.6875 50.1328125 C20.1611348 49.6477121 20.63476959 49.16261169 21.12275696 48.66281128 C21.74780624 48.0288443 22.37285553 47.39487732 23.0168457 46.74169922 C23.6348555 46.11222382 24.2528653 45.48274841 24.88960266 44.834198 C27.04363492 42.79579505 29.18625741 41.49745535 31.875 40.2578125 C32.69355469 39.86851562 33.51210938 39.47921875 34.35546875 39.078125 C43.17944871 35.5012353 55.64433724 35.71594262 64.6875 38.5703125 C75.72641749 43.38606145 83.22030685 53.1680756 87.9375 63.9453125 C93.5801542 79.13345671 93.03849923 95.81799663 87 110.8203125 C81.35363046 122.28415368 74.13691008 129.70209253 62.3125 134.4453125 C51.69398327 137.9798884 40.85718052 138.05930785 30.5 133.5078125 C25.75415368 130.93346108 22.34125923 127.04755453 18.6875 123.1328125 C18.3575 126.7628125 18.0275 130.3928125 17.6875 134.1328125 C9.7675 134.1328125 1.8475 134.1328125 -6.3125 134.1328125 C-6.33561843 116.80903848 -6.35347893 99.4852706 -6.36431217 82.16148472 C-6.36947523 74.11831196 -6.37651812 66.07514893 -6.38793945 58.03198242 C-6.39788598 51.0240829 -6.40435335 44.01619042 -6.40658849 37.00828403 C-6.40789566 33.29538058 -6.41098184 29.5824973 -6.41823006 25.8696003 C-6.42624332 21.73149839 -6.42649116 17.59343189 -6.42602539 13.45532227 C-6.42962067 12.21526932 -6.43321594 10.97521637 -6.43692017 9.69758606 C-6.4355455 8.57712891 -6.43417084 7.45667175 -6.43275452 6.30226135 C-6.43367631 5.32239541 -6.4345981 4.34252947 -6.43554783 3.33297062 C-6.19696854 -0.93294917 -3.69471256 0.00419309 0 0 Z M24.8046875 66.29296875 C18.44310666 75.497285 17.68503653 84.21855711 18.6875 95.1328125 C20.24072898 102.90878796 24.22443235 107.68945349 30.6875 112.1328125 C35.721536 115.05677353 41.37563969 115.68120495 47.09375 114.734375 C53.42706721 112.89077239 58.61251908 109.70884345 61.97265625 103.91796875 C66.53026726 94.10031922 67.18907359 83.7021924 63.65234375 73.41796875 C60.98853601 67.10895043 57.45445658 63.11004079 51.2734375 60.01953125 C41.94979337 56.82245086 31.39746773 58.72905284 24.8046875 66.29296875 Z"/>
    <path transform="translate(624,417)" fill="#FFFFFF"
          d="M0 0 C8.25 0 16.5 0 25 0 C26.125 7.875 26.125 7.875 26.11352539 11.55834961 C26.11344986 12.37867172 26.11337433 13.19899384 26.11329651 14.04417419 C26.10813522 14.90487015 26.10297394 15.7655661 26.09765625 16.65234375 C26.0962413 17.55247696 26.09482635 18.45261017 26.09336853 19.38002014 C26.0878066 22.23254837 26.07526127 25.08499581 26.0625 27.9375 C26.05748008 29.88085824 26.05291803 31.82421771 26.04882812 33.76757812 C26.03784966 38.5117495 26.02061153 43.25586109 26 48 C26.66386719 47.45150391 27.32773437 46.90300781 28.01171875 46.33789062 C28.89472656 45.61794922 29.77773438 44.89800781 30.6875 44.15625 C31.55761719 43.44275391 32.42773438 42.72925781 33.32421875 41.99414062 C42.58974152 35.08895906 53.86941188 34.70841413 65 36 C68.66718439 36.88627391 71.73510382 38.12691215 75 40 C76.546875 40.86625 76.546875 40.86625 78.125 41.75 C89.38121009 50.55920789 96.06394265 61.6893094 98 76 C99.32194839 93.62204411 96.70226906 108.57325264 85.5 122.75 C77.23304036 131.47101613 66.3961507 135.07928207 54.69921875 135.9140625 C46.14427144 136.11280468 38.92500908 134.14903811 32 129 C29.46407528 126.47811177 27.18403582 123.83011716 25 121 C25.01160156 121.78246094 25.02320313 122.56492187 25.03515625 123.37109375 C25.04417969 124.38300781 25.05320312 125.39492188 25.0625 126.4375 C25.07410156 127.44683594 25.08570313 128.45617187 25.09765625 129.49609375 C25 132 25 132 24 133 C16.08 133 8.16 133 0 133 C0 89.11 0 45.22 0 0 Z M29.54296875 67.70703125 C25.63340983 73.51693273 24.49223876 78.6147931 24.625 85.4375 C24.63515137 86.1888623 24.64530273 86.94022461 24.65576172 87.71435547 C24.87993718 95.69604461 26.73208034 101.48282313 32.2734375 107.4609375 C37.55767406 112.17132032 43.94833149 114.28831353 51 114 C57.45230074 112.8722029 62.79640518 110.06615064 67 105 C72.15542378 95.97409089 73.65678445 86.11336801 71.28125 75.9140625 C68.87899848 68.8429189 65.99878401 63.55090285 59.4375 59.625 C47.71042463 54.3489245 37.40001466 58.65556505 29.54296875 67.70703125 Z"/>
    <path transform="translate(279.14453125,418.47265625)" fill="#8425BB"
          d="M0 0 C6.68989967 5.2501439 10.50242 12.14937522 11.85546875 20.52734375 C12.77198177 32.2128847 6.93521435 41.45765382 1.10546875 51.08984375 C0.33969339 52.37353015 -0.4251019 53.65780165 -1.18896484 54.94262695 C-3.12676299 58.1959086 -5.07706492 61.44145772 -7.03283691 64.68395996 C-8.71668433 67.4760737 -10.39515869 70.27141175 -12.07421875 73.06640625 C-13.91216064 76.12539213 -15.75085913 79.18388596 -17.59399414 82.23974609 C-22.92560242 91.09988637 -28.09739589 100.04775926 -33.22314453 109.02807617 C-39.52792754 120.04455398 -39.52792754 120.04455398 -42.14453125 123.52734375 C-42.80453125 123.52734375 -43.46453125 123.52734375 -44.14453125 123.52734375 C-44.60859375 122.68558594 -45.07265625 121.84382812 -45.55078125 120.9765625 C-50.2790736 112.46163422 -55.17355669 104.05179283 -60.15066528 95.68014526 C-61.20546998 93.90497127 -62.25819517 92.12858029 -63.31030273 90.35180664 C-66.18089041 85.50605211 -69.05430627 80.66320651 -71.98828125 75.85546875 C-72.72810916 74.62124032 -73.46772142 73.38688258 -74.20703125 72.15234375 C-74.81675781 71.15460938 -75.42648438 70.156875 -76.0546875 69.12890625 C-77.39369919 65.93255576 -77.08775226 64.82787318 -76.14453125 61.52734375 C-75.11958577 59.51665931 -74.01317396 57.54666274 -72.85546875 55.609375 C-72.35263618 54.75973427 -72.35263618 54.75973427 -71.83964539 53.89292908 C-70.73986532 52.03768091 -69.630138 50.18862791 -68.51953125 48.33984375 C-66.96071112 45.72824348 -65.40578211 43.11434018 -63.8515625 40.5 C-63.45672165 39.83737152 -63.0618808 39.17474304 -62.65507507 38.49203491 C-60.0380816 34.08423769 -57.50907735 29.63571309 -55.03125 25.1484375 C-54.37939565 23.9785777 -53.72722057 22.80889655 -53.07470703 21.6394043 C-51.86699499 19.46536475 -50.67296415 17.28364372 -49.49560547 15.09301758 C-44.87116524 6.8369963 -38.06833003 -2.27651881 -28.53515625 -5.10546875 C-17.80279851 -6.75390278 -8.96278713 -6.15477367 0 0 Z"/>
    <path transform="translate(593,460)" fill="#FFFFFF"
          d="M0 0 C7.68930479 6.84852594 10.76631211 14.95080745 12 25 C12.08185452 27.25265585 12.11791942 29.50733636 12.11352539 31.76147461 C12.11341209 33.71270485 12.11341209 33.71270485 12.11329651 35.70335388 C12.10819141 37.10301757 12.10297544 38.50268086 12.09765625 39.90234375 C12.09578866 41.34965465 12.09436637 42.79696619 12.09336853 44.24427795 C12.08957018 48.0335976 12.0797631 51.82287826 12.06866455 55.61218262 C12.05839247 59.48689242 12.05385854 63.3616086 12.04882812 67.23632812 C12.03813815 74.82423849 12.02056339 82.41210879 12 90 C4.08 90 -3.84 90 -12 90 C-12.33 86.37 -12.66 82.74 -13 79 C-13.45375 79.70125 -13.9075 80.4025 -14.375 81.125 C-20.89083629 88.26139213 -29.56725456 91.84673413 -39.1484375 92.30078125 C-40.55716352 92.32018021 -41.96618557 92.32377954 -43.375 92.3125 C-44.11741943 92.30686035 -44.85983887 92.3012207 -45.62475586 92.29541016 C-55.18579714 92.08477319 -63.06795556 89.88751311 -70 83 C-77.14949684 74.02808239 -77.80097938 66.24803899 -77 55 C-75.66935677 48.851787 -73.19574785 44.02807411 -68.05102539 40.27880859 C-61.16008935 35.98232925 -53.02796778 35.27199764 -45.125 34.4375 C-44.04033447 34.31528076 -42.95566895 34.19306152 -41.83813477 34.06713867 C-38.55982364 33.70068966 -35.28026886 33.34844433 -32 33 C-30.04817546 32.78907754 -28.09635245 32.5781409 -26.14453125 32.3671875 C-21.76433547 31.89802341 -17.38281208 31.44402745 -13 31 C-13.30362125 29.55911752 -13.61179233 28.11919329 -13.921875 26.6796875 C-14.09299805 25.87772949 -14.26412109 25.07577148 -14.44042969 24.24951172 C-15.5164979 19.9236424 -16.95234212 17.68219583 -20.6875 15.25 C-28.06680037 12.46535835 -34.53360973 12.60560588 -42 15 C-45.20322032 16.97645509 -46.63942358 18.1535943 -48.11328125 21.61328125 C-50 24 -50 24 -53.765625 24.5234375 C-55.26104429 24.49953204 -56.75622396 24.44905044 -58.25 24.375 C-58.98863281 24.36082031 -59.72726562 24.34664063 -60.48828125 24.33203125 C-65.05907595 24.21111076 -69.48811619 23.72810823 -74 23 C-72.47921607 14.99587406 -70.65255217 8.97402433 -65 3 C-64.49726562 2.44570313 -63.99453125 1.89140625 -63.4765625 1.3203125 C-49.02670161 -12.84759989 -15.45764651 -11.61592223 0 0 Z M-28.1875 48.25 C-29.29931641 48.45496094 -30.41113281 48.65992188 -31.55664062 48.87109375 C-42.64087637 50.92679409 -42.64087637 50.92679409 -51.125 57.8125 C-52.2605688 61.94921493 -51.69582512 64.09222908 -50 68 C-45.82941077 72.03605409 -41.38385906 72.34622935 -35.828125 72.28125 C-28.18855729 71.52151399 -21.28946574 68.55393903 -16 63 C-12.19344946 57.67082925 -12.69821023 52.2816981 -13 46 C-18.15087675 46 -23.1447095 47.26730236 -28.1875 48.25 Z"/>
    <path transform="translate(836,455)" fill="#FFFFFF"
          d="M0 0 C8.91 0 17.82 0 27 0 C35 20.66666667 43 41.33333333 51 62 C54.20260968 55.15265272 56.80926797 48.1707124 59.29296875 41.03515625 C59.68446609 39.92063583 60.07596344 38.80611542 60.47932434 37.65782166 C61.71889107 34.12726625 62.95345442 30.5949886 64.1875 27.0625 C65.43310111 23.50532065 66.67975742 19.9485164 67.92781067 16.39219666 C68.70179749 14.18586438 69.47421445 11.97898066 70.24491882 9.77149963 C70.76599968 8.28371254 70.76599968 8.28371254 71.29760742 6.76586914 C71.60309006 5.89144669 71.90857269 5.01702423 72.22331238 4.11610413 C73 2 73 2 74 0 C82.91 0 91.82 0 101 0 C98.97536172 6.07391484 96.88415325 12.01549846 94.515625 17.94921875 C94.18318787 18.78801071 93.85075073 19.62680267 93.50823975 20.49101257 C92.42447708 23.22410128 91.3373152 25.95582289 90.25 28.6875 C89.10250273 31.57707865 87.95571248 34.46693725 86.80895996 37.35681152 C86.0274392 39.32608707 85.24561751 41.29524322 84.46350098 43.26428223 C81.91422733 49.68484224 79.38067224 56.11137519 76.859375 62.54296875 C52.4614018 124.75683823 52.4614018 124.75683823 38.03125 131.22265625 C28.28300318 134.95323532 19.04172594 134.72959614 9 132 C8.67 131.67 8.34 131.34 8 131 C8.14863082 124.59744148 8.52702329 116.97404486 11 111 C14 110 14 110 17.1875 110.125 C23.70947993 109.91116459 29.39466901 107.73325685 34 103 C36.99139934 98.63674873 38.38175568 95.53384708 37.53253174 90.17362976 C36.38138019 85.47498538 34.25216355 81.11369657 32.29296875 76.70703125 C31.57711609 75.06901299 31.57711609 75.06901299 30.84680176 73.39790344 C29.30138935 69.86600861 27.74435506 66.33936366 26.1875 62.8125 C25.12963926 60.39805107 24.07275526 57.98317397 23.0168457 55.56787109 C20.94842949 50.83841572 18.87646463 46.11054773 16.80078125 41.38427734 C13.40234673 33.64287532 10.03112055 25.89021524 6.6875 18.125 C6.22174561 17.05483643 5.75599121 15.98467285 5.27612305 14.88208008 C4.65024292 13.42838013 4.65024292 13.42838013 4.01171875 11.9453125 C3.66584717 11.14625488 3.31997559 10.34719727 2.96362305 9.52392578 C1.77772623 6.41781956 0.91339083 3.19686789 0 0 Z"/>
    <path transform="translate(341,455)" fill="#FFFFFF"
          d="M0 0 C8.91 0 17.82 0 27 0 C32.32393039 13.87963961 37.11680341 27.91782255 41.875 42 C42.66643054 44.33601751 43.45809551 46.67195561 44.25 49.0078125 C46.16936702 54.67096346 48.08585066 60.33508347 50 66 C52.02233282 62.96650078 52.98513554 60.42922615 54.13891602 56.98388672 C54.55597305 55.74605438 54.97303009 54.50822205 55.40272522 53.23287964 C55.85312435 51.88181741 56.3035179 50.53075332 56.75390625 49.1796875 C57.21900636 47.7961571 57.6845841 46.41278717 58.15061951 45.02957153 C59.37539318 41.39143182 60.59537165 37.75170497 61.81384277 34.1114502 C63.76688752 28.27715494 65.72431593 22.44434577 67.68717766 16.6133461 C68.37280718 14.57283897 69.05463417 12.53108766 69.73622131 10.48922729 C70.15012619 9.25769928 70.56403107 8.02617126 70.99047852 6.75732422 C71.35528824 5.6671701 71.72009796 4.57701599 72.09596252 3.4538269 C73 1 73 1 74 0 C75.99964982 -0.08758003 78.0023611 -0.10696576 80.00390625 -0.09765625 C81.21884766 -0.09443359 82.43378906 -0.09121094 83.68554688 -0.08789062 C84.96494141 -0.07951172 86.24433594 -0.07113281 87.5625 -0.0625 C88.84576172 -0.05798828 90.12902344 -0.05347656 91.45117188 -0.04882812 C94.63416022 -0.03699545 97.81705762 -0.02051068 101 0 C96.2674111 12.76448142 91.34384889 25.45086305 86.375 38.125 C85.98248047 39.12681305 85.58996094 40.1286261 85.18554688 41.16079712 C80.40033946 53.37122157 75.61244556 65.58082133 70.76397705 77.76629639 C70.01690365 79.64499173 69.27282116 81.52487554 68.52880859 83.40478516 C68.08617676 84.51257324 67.64354492 85.62036133 67.1875 86.76171875 C66.80980469 87.71006592 66.43210937 88.65841309 66.04296875 89.63549805 C65 92 65 92 63 95 C60.38623047 95.34057617 60.38623047 95.34057617 57.1171875 95.29296875 C55.95058594 95.28330078 54.78398437 95.27363281 53.58203125 95.26367188 C51.74705078 95.2259668 51.74705078 95.2259668 49.875 95.1875 C48.02841797 95.16719727 48.02841797 95.16719727 46.14453125 95.14648438 C43.09592157 95.11103543 40.048175 95.06162079 37 95 C31.69612002 81.79936816 26.469428 68.57116612 21.3125 55.3125 C19.92395622 51.74578991 18.53454542 48.17941855 17.14453125 44.61328125 C16.79919342 43.72730255 16.45385559 42.84132385 16.09805298 41.92849731 C13.77016894 35.96133659 11.42771105 30.00007307 9.07421875 24.04296875 C8.76825272 23.26826736 8.46228668 22.49356598 8.14704895 21.69538879 C6.70379846 18.04243274 5.25825854 14.39040166 3.80981445 10.73950195 C3.30024991 9.45135167 2.79072591 8.16318534 2.28125 6.875 C1.83845703 5.75867188 1.39566406 4.64234375 0.93945312 3.4921875 C0 1 0 1 0 0 Z"/>
    <path transform="translate(505.125,451.875)" fill="#FFFFFF"
          d="M0 0 C1.30324219 -0.00386719 1.30324219 -0.00386719 2.6328125 -0.0078125 C4.875 0.125 4.875 0.125 6.875 1.125 C6.7333467 4.00026069 6.58681468 6.87513536 6.4375 9.75 C6.39818359 10.55824219 6.35886719 11.36648438 6.31835938 12.19921875 C6.08703918 16.57650865 5.70579083 20.81047281 4.875 25.125 C4.04097656 25.09019531 3.20695312 25.05539062 2.34765625 25.01953125 C-6.15691079 24.81495404 -13.19031077 24.96014127 -20 30.4375 C-24.55468314 36.19783456 -26.21450786 41.41434666 -26.33032227 48.62792969 C-26.35026749 49.72876892 -26.37021271 50.82960815 -26.39076233 51.96380615 C-26.40747482 53.14621887 -26.42418732 54.32863159 -26.44140625 55.546875 C-26.46218735 56.76199768 -26.48296844 57.97712036 -26.50437927 59.22906494 C-26.56976828 63.11098573 -26.62871051 66.9929742 -26.6875 70.875 C-26.73069532 73.50651742 -26.77430994 76.13802799 -26.81835938 78.76953125 C-26.92543883 85.2212826 -27.02722514 91.67310129 -27.125 98.125 C-31.27081887 98.15386751 -35.41661216 98.17175327 -39.5625 98.1875 C-41.33850586 98.20006836 -41.33850586 98.20006836 -43.15039062 98.21289062 C-44.27509766 98.21611328 -45.39980469 98.21933594 -46.55859375 98.22265625 C-48.12178345 98.23051147 -48.12178345 98.23051147 -49.71655273 98.23852539 C-52.125 98.125 -52.125 98.125 -53.125 97.125 C-53.22025367 94.20305335 -53.25052736 91.30479671 -53.23852539 88.38256836 C-53.23867142 87.4655867 -53.23881744 86.54860504 -53.2389679 85.60383606 C-53.2382684 82.55748164 -53.23047428 79.51118755 -53.22265625 76.46484375 C-53.2207922 74.35877007 -53.21936824 72.25269597 -53.21836853 70.1466217 C-53.21454231 64.59157117 -53.20471114 59.03654659 -53.19366455 53.48150635 C-53.18345267 47.8177526 -53.17887139 42.15399467 -53.17382812 36.49023438 C-53.16308896 25.36847631 -53.14549132 14.24674437 -53.125 3.125 C-45.205 3.125 -37.285 3.125 -29.125 3.125 C-28.795 7.415 -28.465 11.705 -28.125 16.125 C-26.84625 14.578125 -25.5675 13.03125 -24.25 11.4375 C-17.65596403 4.08301438 -9.93070927 -0.02964391 0 0 Z"/>
    <path transform="translate(836,455)" fill="#020205"
          d="M0 0 C8.91 0 17.82 0 27 0 C35 20.66666667 43 41.33333333 51 62 C54.20260968 55.15265272 56.80926797 48.1707124 59.29296875 41.03515625 C59.68446609 39.92063583 60.07596344 38.80611542 60.47932434 37.65782166 C61.71889107 34.12726625 62.95345442 30.5949886 64.1875 27.0625 C65.43310111 23.50532065 66.67975742 19.9485164 67.92781067 16.39219666 C68.70179749 14.18586438 69.47421445 11.97898066 70.24491882 9.77149963 C70.76599968 8.28371254 70.76599968 8.28371254 71.29760742 6.76586914 C71.60309006 5.89144669 71.90857269 5.01702423 72.22331238 4.11610413 C73 2 73 2 74 0 C82.91 0 91.82 0 101 0 C98.97536172 6.07391484 96.88415325 12.01549846 94.515625 17.94921875 C94.18318787 18.78801071 93.85075073 19.62680267 93.50823975 20.49101257 C92.42447708 23.22410128 91.3373152 25.95582289 90.25 28.6875 C89.10250273 31.57707865 87.95571248 34.46693725 86.80895996 37.35681152 C86.0274392 39.32608707 85.24561751 41.29524322 84.46350098 43.26428223 C81.91422733 49.68484224 79.38067224 56.11137519 76.859375 62.54296875 C52.4614018 124.75683823 52.4614018 124.75683823 38.03125 131.22265625 C28.28300318 134.95323532 19.04172594 134.72959614 9 132 C8.67 131.67 8.34 131.34 8 131 C8.14863082 124.59744148 8.52702329 116.97404486 11 111 C14 110 14 110 17.1875 110.125 C23.70947993 109.91116459 29.39466901 107.73325685 34 103 C36.99139934 98.63674873 38.38175568 95.53384708 37.53253174 90.17362976 C36.38138019 85.47498538 34.25216355 81.11369657 32.29296875 76.70703125 C31.57711609 75.06901299 31.57711609 75.06901299 30.84680176 73.39790344 C29.30138935 69.86600861 27.74435506 66.33936366 26.1875 62.8125 C25.12963926 60.39805107 24.07275526 57.98317397 23.0168457 55.56787109 C20.94842949 50.83841572 18.87646463 46.11054773 16.80078125 41.38427734 C13.40234673 33.64287532 10.03112055 25.89021524 6.6875 18.125 C6.22174561 17.05483643 5.75599121 15.98467285 5.27612305 14.88208008 C4.65024292 13.42838013 4.65024292 13.42838013 4.01171875 11.9453125 C3.66584717 11.14625488 3.31997559 10.34719727 2.96362305 9.52392578 C1.77772623 6.41781956 0.91339083 3.19686789 0 0 Z M2 2 C9.10222181 19.1599053 16.3906477 36.22629922 23.8125 53.25 C25.33517379 56.7454324 26.85728205 60.24110852 28.37834167 63.73724365 C29.3123198 65.88371987 30.24722849 68.02979155 31.18330383 70.175354 C32.03596552 72.13395793 32.8833564 74.09486638 33.7250061 76.05822754 C34.61647456 78.11509806 35.53297953 80.16121668 36.46810913 82.1986084 C36.93584747 83.2452063 37.40358582 84.2918042 37.88549805 85.37011719 C38.31452927 86.30668152 38.74356049 87.24324585 39.18559265 88.20819092 C40.36402448 92.24788518 39.7328378 95.41594292 37.984375 99.1953125 C33.6385916 105.98903719 28.92989868 110.04289521 21 112 C18.2732301 112.2183274 15.74212868 112.14689975 13 112 C12.49309416 114.06081361 11.99475381 116.12373526 11.5 118.1875 C11.2215625 119.33605469 10.943125 120.48460937 10.65625 121.66796875 C10.08504615 124.56818829 9.86716221 127.06096385 10 130 C19.82521676 132.96610317 29.47475794 133.19998194 39 129 C55.28730984 119.68052325 60.78854214 98.91979626 67.1875 82.5 C67.94561248 80.56677434 68.70424379 78.63375206 69.46337891 76.70092773 C70.96375014 72.87843589 72.46116847 69.05481148 73.95556641 65.22998047 C75.68719425 60.79814644 77.4249353 56.36876547 79.16796875 51.94140625 C80.92143845 47.48702757 82.6715497 43.03136629 84.41796875 38.57421875 C86.04298307 34.42983178 87.67628191 30.28886157 89.31762695 26.15092468 C90.35840458 23.52640621 91.39672098 20.9009171 92.43487549 18.27536011 C93.17083309 16.41708358 93.91032723 14.5602089 94.64990234 12.70336914 C95.08898926 11.5921167 95.52807617 10.48086426 95.98046875 9.3359375 C96.37129639 8.35157715 96.76212402 7.3672168 97.16479492 6.35302734 C98.11150076 4.10201153 98.11150076 4.10201153 98 2 C90.41 2 82.82 2 75 2 C74.44538086 3.58345215 73.89076172 5.1669043 73.31933594 6.79833984 C71.4731623 12.06754911 69.62494336 17.33603799 67.77537155 22.6040554 C66.65557308 25.79373987 65.53656223 28.98369581 64.41943359 32.17431641 C63.1306398 35.85391607 61.83901957 39.53251337 60.546875 43.2109375 C60.15191833 44.34050873 59.75696167 45.47007996 59.35003662 46.63388062 C57.05510406 53.1569446 54.63155984 59.60504232 52 66 C49.01158691 64.50579345 48.83274387 62.41572969 47.67749023 59.31860352 C47.22039169 58.10386856 46.76329315 56.88913361 46.29234314 55.6375885 C45.7976427 54.30140451 45.30306247 52.96517601 44.80859375 51.62890625 C44.29883255 50.267248 43.78841233 48.9058363 43.27735901 47.54466248 C41.93171148 43.9556131 40.59443365 40.36350246 39.2590332 36.77062988 C37.63532844 32.40641064 36.00248559 28.04560467 34.37035465 23.68453121 C33.10047078 20.29112669 31.83218977 16.89715299 30.56871033 13.50135803 C30.11476395 12.28347092 29.66081757 11.0655838 29.19311523 9.81079102 C28.79277573 8.73459 28.39243622 7.65838898 27.97996521 6.54957581 C27.06988078 4.05930976 27.06988078 4.05930976 26 2 C18.08 2 10.16 2 2 2 Z"/>
    <path transform="translate(742.3125,415.8671875)" fill="#07070B"
          d="M0 0 C1.07507813 -0.00128906 2.15015625 -0.00257813 3.2578125 -0.00390625 C4.38960937 -0.00003906 5.52140625 0.00382812 6.6875 0.0078125 C7.81929687 0.00394531 8.95109375 0.00007813 10.1171875 -0.00390625 C11.19226563 -0.00261719 12.26734375 -0.00132812 13.375 0 C14.86580078 0.00169189 14.86580078 0.00169189 16.38671875 0.00341797 C18.6875 0.1328125 18.6875 0.1328125 19.6875 1.1328125 C19.78069449 2.6676422 19.804958 4.20673332 19.80102539 5.74438477 C19.80094986 6.72532608 19.80087433 7.7062674 19.80079651 8.7169342 C19.79563522 9.7835881 19.79047394 10.850242 19.78515625 11.94921875 C19.7837413 13.03541 19.78232635 14.12160126 19.78086853 15.2407074 C19.77525048 18.72560325 19.76269492 22.21043592 19.75 25.6953125 C19.74498733 28.05143137 19.74042402 30.40755124 19.73632812 32.76367188 C19.72527519 38.55340714 19.70851951 44.34310531 19.6875 50.1328125 C20.1611348 49.6477121 20.63476959 49.16261169 21.12275696 48.66281128 C21.74780624 48.0288443 22.37285553 47.39487732 23.0168457 46.74169922 C23.6348555 46.11222382 24.2528653 45.48274841 24.88960266 44.834198 C27.04363492 42.79579505 29.18625741 41.49745535 31.875 40.2578125 C32.69355469 39.86851562 33.51210938 39.47921875 34.35546875 39.078125 C43.17944871 35.5012353 55.64433724 35.71594262 64.6875 38.5703125 C75.72641749 43.38606145 83.22030685 53.1680756 87.9375 63.9453125 C93.5801542 79.13345671 93.03849923 95.81799663 87 110.8203125 C81.35363046 122.28415368 74.13691008 129.70209253 62.3125 134.4453125 C51.69398327 137.9798884 40.85718052 138.05930785 30.5 133.5078125 C25.877121 130.95758793 21.84268206 127.35808125 18.6875 123.1328125 C17.96484375 120.37890625 17.96484375 120.37890625 17.6875 118.1328125 C20.0061291 120.36556645 21.99998824 122.54946349 23.9375 125.1328125 C28.67072571 130.88237502 36.69267807 133.6359454 43.92578125 134.35546875 C55.73094228 134.78851293 66.88789184 131.30823788 75.6875 123.31640625 C85.80450674 112.5234788 89.21972211 98.59043962 89.03662109 84.08227539 C88.55574399 70.4721447 84.43509177 57.18526746 74.375 47.5703125 C66.22141843 40.97509464 56.11441746 38.16035388 45.6875 39.1328125 C35.066843 41.01172933 26.64861154 46.0097127 18.6875 53.1328125 C17.6875 52.1328125 17.6875 52.1328125 17.56724548 50.15232849 C17.56946609 49.28406937 17.57168671 48.41581024 17.57397461 47.52124023 C17.57405014 46.54029892 17.57412567 45.5593576 17.57420349 44.5486908 C17.57936478 43.4820369 17.58452606 42.415383 17.58984375 41.31640625 C17.5912587 40.230215 17.59267365 39.14402374 17.59413147 38.0249176 C17.59974952 34.54002175 17.61230508 31.05518908 17.625 27.5703125 C17.63001267 25.21419363 17.63457598 22.85807376 17.63867188 20.50195312 C17.64887589 14.71219539 17.66844776 8.92257505 17.6875 3.1328125 C10.4275 3.1328125 3.1675 3.1328125 -4.3125 3.1328125 C-4.3125 45.7028125 -4.3125 88.2728125 -4.3125 132.1328125 C2.2875 132.1328125 8.8875 132.1328125 15.6875 132.1328125 C15.6875 128.1728125 15.6875 124.2128125 15.6875 120.1328125 C16.3475 120.4628125 17.0075 120.7928125 17.6875 121.1328125 C17.6875 125.4228125 17.6875 129.7128125 17.6875 134.1328125 C9.7675 134.1328125 1.8475 134.1328125 -6.3125 134.1328125 C-6.33561843 116.80903848 -6.35347893 99.4852706 -6.36431217 82.16148472 C-6.36947523 74.11831196 -6.37651812 66.07514893 -6.38793945 58.03198242 C-6.39788598 51.0240829 -6.40435335 44.01619042 -6.40658849 37.00828403 C-6.40789566 33.29538058 -6.41098184 29.5824973 -6.41823006 25.8696003 C-6.42624332 21.73149839 -6.42649116 17.59343189 -6.42602539 13.45532227 C-6.42962067 12.21526932 -6.43321594 10.97521637 -6.43692017 9.69758606 C-6.4355455 8.57712891 -6.43417084 7.45667175 -6.43275452 6.30226135 C-6.43367631 5.32239541 -6.4345981 4.34252947 -6.43554783 3.33297062 C-6.19696854 -0.93294917 -3.69471256 0.00419309 0 0 Z"/>
    <path transform="translate(593,460)" fill="#040307"
          d="M0 0 C7.68930479 6.84852594 10.76631211 14.95080745 12 25 C12.08185452 27.25265585 12.11791942 29.50733636 12.11352539 31.76147461 C12.11341209 33.71270485 12.11341209 33.71270485 12.11329651 35.70335388 C12.10819141 37.10301757 12.10297544 38.50268086 12.09765625 39.90234375 C12.09578866 41.34965465 12.09436637 42.79696619 12.09336853 44.24427795 C12.08957018 48.0335976 12.0797631 51.82287826 12.06866455 55.61218262 C12.05839247 59.48689242 12.05385854 63.3616086 12.04882812 67.23632812 C12.03813815 74.82423849 12.02056339 82.41210879 12 90 C4.08 90 -3.84 90 -12 90 C-12.33 86.37 -12.66 82.74 -13 79 C-13.45375 79.70125 -13.9075 80.4025 -14.375 81.125 C-20.89083629 88.26139213 -29.56725456 91.84673413 -39.1484375 92.30078125 C-40.55716352 92.32018021 -41.96618557 92.32377954 -43.375 92.3125 C-44.11741943 92.30686035 -44.85983887 92.3012207 -45.62475586 92.29541016 C-55.18579714 92.08477319 -63.06795556 89.88751311 -70 83 C-77.14949684 74.02808239 -77.80097938 66.24803899 -77 55 C-75.66935677 48.851787 -73.19574785 44.02807411 -68.05102539 40.27880859 C-61.16008935 35.98232925 -53.02796778 35.27199764 -45.125 34.4375 C-44.04033447 34.31528076 -42.95566895 34.19306152 -41.83813477 34.06713867 C-38.55982364 33.70068966 -35.28026886 33.34844433 -32 33 C-30.04817546 32.78907754 -28.09635245 32.5781409 -26.14453125 32.3671875 C-21.76433547 31.89802341 -17.38281208 31.44402745 -13 31 C-13.30362125 29.55911752 -13.61179233 28.11919329 -13.921875 26.6796875 C-14.09299805 25.87772949 -14.26412109 25.07577148 -14.44042969 24.24951172 C-15.5164979 19.9236424 -16.95234212 17.68219583 -20.6875 15.25 C-28.06680037 12.46535835 -34.53360973 12.60560588 -42 15 C-45.20322032 16.97645509 -46.63942358 18.1535943 -48.11328125 21.61328125 C-50 24 -50 24 -53.765625 24.5234375 C-55.26104429 24.49953204 -56.75622396 24.44905044 -58.25 24.375 C-58.98863281 24.36082031 -59.72726562 24.34664063 -60.48828125 24.33203125 C-65.05907595 24.21111076 -69.48811619 23.72810823 -74 23 C-72.47921607 14.99587406 -70.65255217 8.97402433 -65 3 C-64.49726562 2.44570313 -63.99453125 1.89140625 -63.4765625 1.3203125 C-49.02670161 -12.84759989 -15.45764651 -11.61592223 0 0 Z M-64.25 4.25 C-68.71902248 9.95227732 -71.27093273 14.65355483 -71 22 C-67.75326676 22.34256166 -64.5043037 22.61501431 -61.25 22.875 C-60.32960938 22.97296875 -59.40921875 23.0709375 -58.4609375 23.171875 C-55.85181611 23.36094177 -53.57699106 23.46059667 -51 23 C-48.40974919 20.27953125 -48.40974919 20.27953125 -47 17 C-41.28790722 11.84518456 -36.7714355 11.71032247 -29.3046875 11.78515625 C-23.73992889 12.14693134 -19.77436094 13.31902648 -15.625 17.25 C-12.62184746 22.33225814 -11.63943294 26.2836607 -13 32 C-22.46414092 34.20973204 -32.01140209 34.91817452 -41.68164062 35.6796875 C-52.18137143 36.6201214 -62.87042158 37.76048876 -71 45 C-76.22819945 51.7562119 -75.93190513 60.90626536 -75.26611328 69.02929688 C-74.38323261 75.56747372 -71.26665839 80.30377349 -66.25 84.4375 C-55.90449184 91.17544166 -43.78749788 91.49160481 -31.82421875 89.4609375 C-25.32386299 87.66569509 -20.45902363 84.56090154 -15.75 79.75 C-14.8425 78.8425 -13.935 77.935 -13 77 C-12.34 77 -11.68 77 -11 77 C-10.505 82.445 -10.505 82.445 -10 88 C-3.4 88 3.2 88 10 88 C10.06814884 79.86267924 10.12302899 71.72558548 10.15543652 63.58805466 C10.17100124 59.80826854 10.19206809 56.02869009 10.22631836 52.24902344 C10.25924421 48.59205372 10.27692187 44.93528202 10.28463173 41.27817535 C10.29011635 39.8925185 10.30082379 38.50687079 10.31719017 37.12129974 C10.45901692 24.60064704 9.54010966 12.78596095 1 3 C-8.9147464 -6.48677173 -23.1286935 -6.37350585 -35.9921875 -6.21875 C-46.13038726 -5.91509744 -57.17417789 -3.49468091 -64.25 4.25 Z"/>
    <path transform="translate(624,417)" fill="#010205"
          d="M0 0 C8.25 0 16.5 0 25 0 C26.125 7.875 26.125 7.875 26.02172852 11.74194336 C25.99158409 13.03248878 25.99158409 13.03248878 25.96083069 14.34910583 C25.92027809 15.7057711 25.92027809 15.7057711 25.87890625 17.08984375 C25.85529526 18.03436905 25.83168427 18.97889435 25.80735779 19.95204163 C25.73122791 22.94736694 25.64698767 25.94239995 25.5625 28.9375 C25.50922849 30.97719958 25.45648851 33.01691312 25.40429688 35.05664062 C25.27568195 40.03794297 25.13979643 45.01899942 25 50 C24.01 50.495 24.01 50.495 23 51 C23 34.5 23 18 23 1 C16.07 1 9.14 1 2 1 C2 43.9 2 86.8 2 131 C8.93 131 15.86 131 23 131 C23 126.71 23 122.42 23 118 C23.99 118 24.98 118 26 118 C27.2890625 119.57421875 27.2890625 119.57421875 28.625 121.6875 C33.2834916 128.21863586 40.19482912 131.51970897 48 133 C58.55224605 133.92621595 68.99685474 131.72540443 78 126 C79.36886951 124.70317626 80.7169291 123.38176866 82 122 C82.66 122 83.32 122 84 122 C84.38671875 121.21882812 84.38671875 121.21882812 84.78125 120.421875 C85.72363751 118.54918187 86.68588102 116.68647314 87.65625 114.828125 C88.27102452 113.6355152 88.88560295 112.44280431 89.5 111.25 C90.1084375 110.07953125 90.716875 108.9090625 91.34375 107.703125 C96.99713968 95.7496538 96.95993639 79.39047029 93.4375 66.8125 C89.42672315 56.02294537 83.31850382 47.34442982 73.1875 41.75 C62.90695646 37.04300784 51.41433126 36.83660787 40.75 40.5625 C35.2933585 42.96878945 31.18929862 46.83093953 27 51 C26.67 50.01 26.34 49.02 26 48 C36.90002137 38.25854923 46.30072123 35.06605879 60.73828125 35.609375 C66.02695496 35.97611208 70.40163392 37.36189356 75 40 C76.546875 40.86625 76.546875 40.86625 78.125 41.75 C89.38121009 50.55920789 96.06394265 61.6893094 98 76 C99.32194839 93.62204411 96.70226906 108.57325264 85.5 122.75 C77.23304036 131.47101613 66.3961507 135.07928207 54.69921875 135.9140625 C46.14427144 136.11280468 38.92500908 134.14903811 32 129 C29.46407528 126.47811177 27.18403582 123.83011716 25 121 C25.01160156 121.78246094 25.02320313 122.56492187 25.03515625 123.37109375 C25.04417969 124.38300781 25.05320312 125.39492188 25.0625 126.4375 C25.07410156 127.44683594 25.08570313 128.45617187 25.09765625 129.49609375 C25 132 25 132 24 133 C16.08 133 8.16 133 0 133 C0 89.11 0 45.22 0 0 Z"/>
    <path transform="translate(341,455)" fill="#030306"
          d="M0 0 C8.91 0 17.82 0 27 0 C32.32393039 13.87963961 37.11680341 27.91782255 41.875 42 C42.66643054 44.33601751 43.45809551 46.67195561 44.25 49.0078125 C46.16936702 54.67096346 48.08585066 60.33508347 50 66 C52.02233282 62.96650078 52.98513554 60.42922615 54.13891602 56.98388672 C54.55597305 55.74605438 54.97303009 54.50822205 55.40272522 53.23287964 C55.85312435 51.88181741 56.3035179 50.53075332 56.75390625 49.1796875 C57.21900636 47.7961571 57.6845841 46.41278717 58.15061951 45.02957153 C59.37539318 41.39143182 60.59537165 37.75170497 61.81384277 34.1114502 C63.76688752 28.27715494 65.72431593 22.44434577 67.68717766 16.6133461 C68.37280718 14.57283897 69.05463417 12.53108766 69.73622131 10.48922729 C70.15012619 9.25769928 70.56403107 8.02617126 70.99047852 6.75732422 C71.35528824 5.6671701 71.72009796 4.57701599 72.09596252 3.4538269 C73 1 73 1 74 0 C75.99964982 -0.08758003 78.0023611 -0.10696576 80.00390625 -0.09765625 C81.21884766 -0.09443359 82.43378906 -0.09121094 83.68554688 -0.08789062 C84.96494141 -0.07951172 86.24433594 -0.07113281 87.5625 -0.0625 C88.84576172 -0.05798828 90.12902344 -0.05347656 91.45117188 -0.04882812 C94.63416022 -0.03699545 97.81705762 -0.02051068 101 0 C96.2674111 12.76448142 91.34384889 25.45086305 86.375 38.125 C85.98248047 39.12681305 85.58996094 40.1286261 85.18554688 41.16079712 C80.40033946 53.37122157 75.61244556 65.58082133 70.76397705 77.76629639 C70.01690365 79.64499173 69.27282116 81.52487554 68.52880859 83.40478516 C68.08617676 84.51257324 67.64354492 85.62036133 67.1875 86.76171875 C66.80980469 87.71006592 66.43210937 88.65841309 66.04296875 89.63549805 C65 92 65 92 63 95 C60.38623047 95.34057617 60.38623047 95.34057617 57.1171875 95.29296875 C55.95058594 95.28330078 54.78398437 95.27363281 53.58203125 95.26367188 C51.74705078 95.2259668 51.74705078 95.2259668 49.875 95.1875 C48.02841797 95.16719727 48.02841797 95.16719727 46.14453125 95.14648438 C43.09592157 95.11103543 40.048175 95.06162079 37 95 C31.69612002 81.79936816 26.469428 68.57116612 21.3125 55.3125 C19.92395622 51.74578991 18.53454542 48.17941855 17.14453125 44.61328125 C16.79919342 43.72730255 16.45385559 42.84132385 16.09805298 41.92849731 C13.77016894 35.96133659 11.42771105 30.00007307 9.07421875 24.04296875 C8.76825272 23.26826736 8.46228668 22.49356598 8.14704895 21.69538879 C6.70379846 18.04243274 5.25825854 14.39040166 3.80981445 10.73950195 C3.30024991 9.45135167 2.79072591 8.16318534 2.28125 6.875 C1.83845703 5.75867188 1.39566406 4.64234375 0.93945312 3.4921875 C0 1 0 1 0 0 Z M3 2 C4.92649366 7.77948097 6.88525811 13.47320811 9.08203125 19.14453125 C9.37299179 19.90046066 9.66395233 20.65639008 9.96372986 21.43522644 C10.91124515 23.89512341 11.86175928 26.35384804 12.8125 28.8125 C13.47634329 30.53316211 14.14007866 32.25386587 14.80371094 33.97460938 C16.86555366 39.31779595 18.93237371 44.65904932 21 50 C21.33586121 50.86800232 21.67172241 51.73600464 22.01776123 52.63031006 C23.95560179 57.63829064 25.89546762 62.64547864 27.83847046 67.65145874 C28.44134058 69.20474394 29.04390501 70.75814783 29.64614868 72.31167603 C30.48674898 74.47912841 31.32904357 76.64591439 32.171875 78.8125 C32.6472168 80.03582031 33.12255859 81.25914062 33.61230469 82.51953125 C35.01495373 86.03750536 36.50811335 89.51893115 38 93 C45.92 93 53.84 93 62 93 C65.33404229 86.36315098 65.33404229 86.36315098 68.19921875 79.60546875 C68.5955249 78.5882373 68.99183105 77.57100586 69.40014648 76.52294922 C69.82497314 75.42225098 70.2497998 74.32155273 70.6875 73.1875 C71.39527362 71.36978885 72.10308464 69.55209208 72.81178284 67.73474121 C73.33124963 66.40261913 73.85031039 65.07033865 74.3690033 63.73791504 C77.81284912 54.89777389 81.30728162 46.07757363 84.79776001 37.25576782 C85.9193169 34.42095898 87.04018207 31.58587751 88.16088867 28.75073242 C88.86634417 26.96662244 89.57182798 25.18252365 90.27734375 23.3984375 C90.5936676 22.59826706 90.90999146 21.79809662 91.23590088 20.97367859 C91.54082458 20.20296524 91.84574829 19.43225189 92.15991211 18.63818359 C92.45630585 17.88736511 92.75269958 17.13654663 93.05807495 16.36297607 C93.73715181 14.65939852 94.42596126 12.95968917 95.12088013 11.26251221 C95.48776947 10.36329041 95.85465881 9.4640686 96.23266602 8.53759766 C96.57032486 7.71748199 96.9079837 6.89736633 97.25587463 6.05239868 C98.11361743 4.05048295 98.11361743 4.05048295 98 2 C90.41 2 82.82 2 75 2 C71.7276142 10.14162328 71.7276142 10.14162328 68.80175781 18.36767578 C68.42166565 19.50810333 68.04157349 20.64853088 67.64996338 21.82351685 C67.05752838 23.61630569 67.05752838 23.61630569 66.453125 25.4453125 C66.03705994 26.69633759 65.62099487 27.94736267 65.19232178 29.23629761 C64.0980923 32.52654135 63.00747475 35.81797078 61.91766357 39.10968018 C60.80019765 42.48271311 59.67923907 45.85458484 58.55859375 49.2265625 C56.36901994 55.81659044 54.18326838 62.40788048 52 69 C51.01 69 50.02 69 49 69 C48.69408936 68.07179443 48.38817871 67.14358887 48.07299805 66.18725586 C40.98154132 44.69250165 33.6624705 23.29804794 26 2 C18.41 2 10.82 2 3 2 Z"/>
    <path transform="translate(505.125,451.875)" fill="#050508"
          d="M0 0 C1.30324219 -0.00386719 1.30324219 -0.00386719 2.6328125 -0.0078125 C4.875 0.125 4.875 0.125 6.875 1.125 C6.7333467 4.00026069 6.58681468 6.87513536 6.4375 9.75 C6.39818359 10.55824219 6.35886719 11.36648438 6.31835938 12.19921875 C6.08703918 16.57650865 5.70579083 20.81047281 4.875 25.125 C4.04097656 25.09019531 3.20695312 25.05539062 2.34765625 25.01953125 C-6.15691079 24.81495404 -13.19031077 24.96014127 -20 30.4375 C-24.55468314 36.19783456 -26.21450786 41.41434666 -26.33032227 48.62792969 C-26.35026749 49.72876892 -26.37021271 50.82960815 -26.39076233 51.96380615 C-26.40747482 53.14621887 -26.42418732 54.32863159 -26.44140625 55.546875 C-26.46218735 56.76199768 -26.48296844 57.97712036 -26.50437927 59.22906494 C-26.56976828 63.11098573 -26.62871051 66.9929742 -26.6875 70.875 C-26.73069532 73.50651742 -26.77430994 76.13802799 -26.81835938 78.76953125 C-26.92543883 85.2212826 -27.02722514 91.67310129 -27.125 98.125 C-31.27081887 98.15386751 -35.41661216 98.17175327 -39.5625 98.1875 C-41.33850586 98.20006836 -41.33850586 98.20006836 -43.15039062 98.21289062 C-44.27509766 98.21611328 -45.39980469 98.21933594 -46.55859375 98.22265625 C-48.12178345 98.23051147 -48.12178345 98.23051147 -49.71655273 98.23852539 C-52.125 98.125 -52.125 98.125 -53.125 97.125 C-53.22025367 94.20305335 -53.25052736 91.30479671 -53.23852539 88.38256836 C-53.23867142 87.4655867 -53.23881744 86.54860504 -53.2389679 85.60383606 C-53.2382684 82.55748164 -53.23047428 79.51118755 -53.22265625 76.46484375 C-53.2207922 74.35877007 -53.21936824 72.25269597 -53.21836853 70.1466217 C-53.21454231 64.59157117 -53.20471114 59.03654659 -53.19366455 53.48150635 C-53.18345267 47.8177526 -53.17887139 42.15399467 -53.17382812 36.49023438 C-53.16308896 25.36847631 -53.14549132 14.24674437 -53.125 3.125 C-45.205 3.125 -37.285 3.125 -29.125 3.125 C-28.795 7.415 -28.465 11.705 -28.125 16.125 C-26.84625 14.578125 -25.5675 13.03125 -24.25 11.4375 C-17.65596403 4.08301438 -9.93070927 -0.02964391 0 0 Z M-22.6875 11.6875 C-24.45167752 13.87659769 -26.10562613 16.09724824 -27.71484375 18.40234375 C-28.18019531 18.97082031 -28.64554687 19.53929687 -29.125 20.125 C-29.785 20.125 -30.445 20.125 -31.125 20.125 C-31.125 15.175 -31.125 10.225 -31.125 5.125 C-37.725 5.125 -44.325 5.125 -51.125 5.125 C-51.125 35.155 -51.125 65.185 -51.125 96.125 C-43.865 96.125 -36.605 96.125 -29.125 96.125 C-29.11041748 94.60213379 -29.09583496 93.07926758 -29.08081055 91.51025391 C-29.02255901 85.82577789 -28.94532796 80.1416869 -28.86254883 74.45751953 C-28.82942549 72.00380736 -28.80135494 69.5500213 -28.77856445 67.09619141 C-28.74478671 63.55599672 -28.69245833 60.01647151 -28.63671875 56.4765625 C-28.62713387 54.847827 -28.62713387 54.847827 -28.61735535 53.18618774 C-28.46854361 45.3650729 -27.75199318 37.23169373 -22.9375 30.75 C-14.8401341 23.1924585 -6.75688532 23.00943603 3.875 23.125 C4.205 16.195 4.535 9.265 4.875 2.125 C-6.06066111 1.40554861 -15.10671923 3.2736664 -22.6875 11.6875 Z"/>
    <path transform="translate(117,414)" fill="#08E9CB"
          d="M0 0 C-1.96550078 0.99148595 -3.9323183 1.96862529 -5.9296875 2.89453125 C-13.80953104 6.61293132 -18.79102243 10.81794725 -22 19 C-22.83492354 21.42459787 -22.83492354 21.42459787 -23 24 C-23.06316406 24.63292969 -23.12632813 25.26585937 -23.19140625 25.91796875 C-23.87080954 38.30064154 -16.6451179 48.43135308 -10.47119141 58.57226562 C-7.86048983 62.88039978 -5.30913156 67.22360701 -2.75 71.5625 C-1.93317749 72.94369019 -1.93317749 72.94369019 -1.09985352 74.3527832 C3.55356531 82.2249352 8.16090233 90.12353406 12.76196289 98.02636719 C17.243461 105.7181842 21.76709006 113.38433576 26.30541992 121.04272461 C29.37094472 126.22240443 32.4076734 131.41721495 35.41210938 136.63256836 C37.1958746 139.72772444 38.99000516 142.81679029 40.78613281 145.90478516 C41.56889117 147.25587771 42.34723024 148.60954498 43.12011719 149.96630859 C49.09598997 160.44473989 54.49813124 167.58084221 66.2734375 171.34375 C75.10132496 173.46851374 83.24724863 171.51616249 91.1875 167.3125 C97.33255021 162.25990316 103.36507513 155.64402685 106 148 C105.53091057 144.43624377 104.53251158 141.78505344 102.734375 138.69140625 C102.26217529 137.8720459 101.78997559 137.05268555 101.3034668 136.20849609 C100.79082275 135.33531738 100.27817871 134.46213867 99.75 133.5625 C99.22510986 132.65322754 98.70021973 131.74395508 98.15942383 130.80712891 C95.24970956 125.78410646 92.28286798 120.79826107 89.27734375 115.83203125 C88.67760742 114.83550537 88.07787109 113.83897949 87.45996094 112.81225586 C86.29173268 110.87631176 85.1141894 108.94595382 83.92675781 107.02172852 C83.39791992 106.14572998 82.86908203 105.26973145 82.32421875 104.3671875 C81.85072998 103.59487793 81.37724121 102.82256836 80.8894043 102.02685547 C80 100 80 100 81 97 C81.32049316 97.54599854 81.64098633 98.09199707 81.97119141 98.65454102 C83.52060917 101.29162046 85.07265432 103.92714304 86.625 106.5625 C87.48786621 108.03009766 87.48786621 108.03009766 88.36816406 109.52734375 C91.50525339 114.84432965 94.68356876 120.12952487 97.9453125 125.37109375 C98.58130371 126.39710693 99.21729492 127.42312012 99.87255859 128.48022461 C101.1042901 130.46140627 102.34395282 132.43768354 103.59228516 134.40844727 C104.1547998 135.31522217 104.71731445 136.22199707 105.296875 137.15625 C105.79541992 137.94837891 106.29396484 138.74050781 106.80761719 139.55664062 C108.20172503 142.41336284 108.72077207 144.83907559 109 148 C104.90635066 157.92677269 97.90972483 167.43653008 88 172 C77.65011162 175.73464504 68.82233732 176.02266848 58.75 171.4375 C49.00199284 166.6846733 44.14012131 157.30851424 39.0625 148.1875 C37.74242633 145.85717938 36.42077995 143.52780349 35.09765625 141.19921875 C34.59221786 140.30642715 34.59221786 140.30642715 34.0765686 139.39559937 C30.47470121 133.04341778 26.74050914 126.77133726 23 120.5 C17.06389926 110.52481372 11.22613125 100.49752492 5.44238281 90.43334961 C1.42433622 83.44856374 -2.6412017 76.49425848 -6.75 69.5625 C-7.80343453 67.78127905 -8.8568208 66.00002955 -9.91015625 64.21875 C-11.46879825 61.58370323 -13.02972193 58.9501333 -14.59716797 56.3203125 C-16.13455299 53.73860347 -17.66190844 51.15119066 -19.1875 48.5625 C-19.64543945 47.79945557 -20.10337891 47.03641113 -20.57519531 46.25024414 C-25.81711292 37.3087962 -27.48693495 29.01431412 -24.875 18.9375 C-22.0257902 10.46865058 -17.23854597 5.39733284 -9.48046875 1.0546875 C-6.03544234 -0.41012688 -3.68283507 -0.48036979 0 0 Z"/>
    <path transform="translate(279.14453125,418.47265625)" fill="#4E049E"
          d="M0 0 C6.68989967 5.2501439 10.50242 12.14937522 11.85546875 20.52734375 C12.77198177 32.2128847 6.93521435 41.45765382 1.10546875 51.08984375 C0.33969339 52.37353015 -0.4251019 53.65780165 -1.18896484 54.94262695 C-3.12676299 58.1959086 -5.07706492 61.44145772 -7.03283691 64.68395996 C-8.71668433 67.4760737 -10.39515869 70.27141175 -12.07421875 73.06640625 C-13.91216064 76.12539213 -15.75085913 79.18388596 -17.59399414 82.23974609 C-22.92560242 91.09988637 -28.09739589 100.04775926 -33.22314453 109.02807617 C-39.52792754 120.04455398 -39.52792754 120.04455398 -42.14453125 123.52734375 C-42.80453125 123.52734375 -43.46453125 123.52734375 -44.14453125 123.52734375 C-44.60859375 122.68558594 -45.07265625 121.84382812 -45.55078125 120.9765625 C-50.2790736 112.46163422 -55.17355669 104.05179283 -60.15066528 95.68014526 C-61.20546998 93.90497127 -62.25819517 92.12858029 -63.31030273 90.35180664 C-66.18089041 85.50605211 -69.05430627 80.66320651 -71.98828125 75.85546875 C-72.72810916 74.62124032 -73.46772142 73.38688258 -74.20703125 72.15234375 C-74.81675781 71.15460938 -75.42648438 70.156875 -76.0546875 69.12890625 C-77.39369919 65.93255576 -77.08775226 64.82787318 -76.14453125 61.52734375 C-75.11958577 59.51665931 -74.01317396 57.54666274 -72.85546875 55.609375 C-72.35263618 54.75973427 -72.35263618 54.75973427 -71.83964539 53.89292908 C-70.73986532 52.03768091 -69.630138 50.18862791 -68.51953125 48.33984375 C-66.96071112 45.72824348 -65.40578211 43.11434018 -63.8515625 40.5 C-63.45672165 39.83737152 -63.0618808 39.17474304 -62.65507507 38.49203491 C-60.0380816 34.08423769 -57.50907735 29.63571309 -55.03125 25.1484375 C-54.37939565 23.9785777 -53.72722057 22.80889655 -53.07470703 21.6394043 C-51.86699499 19.46536475 -50.67296415 17.28364372 -49.49560547 15.09301758 C-44.87116524 6.8369963 -38.06833003 -2.27651881 -28.53515625 -5.10546875 C-17.80279851 -6.75390278 -8.96278713 -6.15477367 0 0 Z M-41.14453125 5.52734375 C-44.10768792 9.68399409 -46.60778833 14.10359082 -49.14453125 18.52734375 C-50.2963177 20.51464602 -51.44871357 22.50159515 -52.6015625 24.48828125 C-55.19878565 28.97002602 -57.77909901 33.46103728 -60.3515625 37.95703125 C-62.71557655 42.07800982 -65.12084118 46.16613606 -67.59375 50.22265625 C-68.11219482 51.08294434 -68.63063965 51.94323242 -69.16479492 52.82958984 C-70.12402663 54.41633412 -71.09613008 55.99539584 -72.08325195 57.56494141 C-73.96890203 60.70901026 -75.11804186 62.78367864 -75.25 66.48828125 C-73.67629894 70.81456897 -71.40154162 74.51472132 -68.95703125 78.40234375 C-67.86821231 80.17350923 -66.78104648 81.94569175 -65.6953125 83.71875 C-65.11990723 84.65477051 -64.54450195 85.59079102 -63.95166016 86.55517578 C-60.77796794 91.77491762 -57.71387034 97.0582916 -54.64453125 102.33984375 C-54.05776611 103.34708496 -53.47100098 104.35432617 -52.86645508 105.39208984 C-49.93723223 110.42485424 -47.02449554 115.46623003 -44.14453125 120.52734375 C-40.48994026 119.30914675 -40.24039762 118.46753029 -38.38671875 115.19921875 C-37.85232178 114.26899902 -37.3179248 113.3387793 -36.76733398 112.38037109 C-35.90217163 110.84437256 -35.90217163 110.84437256 -35.01953125 109.27734375 C-33.75843477 107.07646624 -32.49668749 104.87596154 -31.234375 102.67578125 C-30.5623278 101.49837778 -29.8902902 100.32096884 -29.21826172 99.14355469 C-26.07659401 93.65172686 -22.86853224 88.19873948 -19.6635437 82.74371338 C-18.58062921 80.89995665 -17.49921926 79.05532524 -16.41821289 77.21044922 C-13.0871367 71.5272153 -9.74725975 65.84947661 -6.38671875 60.18359375 C-5.8047876 59.20213379 -5.22285645 58.22067383 -4.62329102 57.20947266 C-3.56049977 55.41900031 -2.49605541 53.62950747 -1.42944336 51.84130859 C9.12885103 35.06104369 9.12885103 35.06104369 9.171875 15.83203125 C6.37735449 8.24856065 2.45306093 2.77807865 -4.51953125 -1.41015625 C-16.61384087 -6.96254385 -32.31552707 -4.52353154 -41.14453125 5.52734375 Z"/>
    <path transform="translate(739.224853515625,415.978271484375)" fill="#000000"
          d="M0 0 C0.9583374 0.04713135 1.9166748 0.0942627 2.90405273 0.14282227 C3.93852539 0.19116211 4.97299805 0.23950195 6.03881836 0.28930664 C7.12743164 0.34538086 8.21604492 0.40145508 9.33764648 0.45922852 C10.43012695 0.51143555 11.52260742 0.56364258 12.64819336 0.61743164 C15.35743724 0.74756999 18.06635442 0.88254906 20.77514648 1.02172852 C20.77514648 1.35172852 20.77514648 1.68172852 20.77514648 2.02172852 C13.51514648 2.02172852 6.25514648 2.02172852 -1.22485352 2.02172852 C-1.22485352 44.92172852 -1.22485352 87.82172852 -1.22485352 132.02172852 C5.37514648 132.02172852 11.97514648 132.02172852 18.77514648 132.02172852 C18.77514648 128.06172852 18.77514648 124.10172852 18.77514648 120.02172852 C19.43514648 120.35172852 20.09514648 120.68172852 20.77514648 121.02172852 C20.77514648 125.31172852 20.77514648 129.60172852 20.77514648 134.02172852 C12.85514648 134.02172852 4.93514648 134.02172852 -3.22485352 134.02172852 C-3.24797194 116.6979545 -3.26583245 99.37418662 -3.27666569 82.05040073 C-3.28182875 74.00722797 -3.28887164 65.96406495 -3.30029297 57.92089844 C-3.3102395 50.91299891 -3.31670687 43.90510644 -3.31894201 36.89720005 C-3.32024917 33.18429659 -3.32333536 29.47141332 -3.33058357 25.75851631 C-3.33859683 21.62041441 -3.33884467 17.48234791 -3.33837891 13.34423828 C-3.34197418 12.10418533 -3.34556946 10.86413239 -3.34927368 9.58650208 C-3.34789902 8.46604492 -3.34652435 7.34558777 -3.34510803 6.19117737 C-3.34602983 5.21131143 -3.34695162 4.23144548 -3.34790134 3.22188663 C-3.18062291 0.23086274 -3.0045163 0.02934291 0 0 Z"/>
    <path transform="translate(681.75,474.125)" fill="#050408"
          d="M0 0 C7.83096272 4.51786311 11.9239431 9.39981736 15.25 17.875 C17.85556081 27.69595999 16.47386786 38.14853467 11.75 47.0625 C8.25617219 52.44601834 4.35348193 55.78050754 -1.75 57.875 C-8.61931026 58.86294575 -15.84948033 59.04878513 -21.94140625 55.328125 C-28.43154952 50.11358224 -33.47433106 44.25973662 -34.75 35.875 C-35.69972388 24.94716441 -34.83076317 15.95906647 -28.125 7.0625 C-20.4232456 -1.08321517 -10.56523674 -3.16957102 0 0 Z M-28.20703125 10.58203125 C-32.11659017 16.39193273 -33.25776124 21.4897931 -33.125 28.3125 C-33.11484863 29.0638623 -33.10469727 29.81522461 -33.09423828 30.58935547 C-32.87006282 38.57104461 -31.01791966 44.35782313 -25.4765625 50.3359375 C-20.19232594 55.04632032 -13.80166851 57.16331353 -6.75 56.875 C-0.29769926 55.7472029 5.04640518 52.94115064 9.25 47.875 C14.40542378 38.84909089 15.90678445 28.98836801 13.53125 18.7890625 C11.12899848 11.7179189 8.24878401 6.42590285 1.6875 2.5 C-10.03957537 -2.7760755 -20.34998534 1.53056505 -28.20703125 10.58203125 Z"/>
    <path transform="translate(795.3125,475)" fill="#040408"
          d="M0 0 C7.92297893 4.45195959 11.96450166 11.8911877 14.375 20.4375 C15.5190061 29.81835006 14.4864359 39.66177927 8.8125 47.5 C4.32673204 52.83861767 -0.22336437 56.49086778 -7.29296875 57.37109375 C-15.06161293 57.53195484 -20.98031303 56.72619752 -27.3125 52 C-34.37883763 45.11331502 -36.44971188 37.19109342 -36.75 27.5625 C-36.54388422 18.60990597 -34.37323295 11.14333786 -28.12890625 4.5390625 C-19.75633671 -2.5551147 -10.12539534 -4.46306781 0 0 Z M-28.1953125 7.16015625 C-34.55689334 16.3644725 -35.31496347 25.08574461 -34.3125 36 C-32.75927102 43.77597546 -28.77556765 48.55664099 -22.3125 53 C-17.278464 55.92396103 -11.62436031 56.54839245 -5.90625 55.6015625 C0.42706721 53.75795989 5.61251908 50.57603095 8.97265625 44.78515625 C13.53026726 34.96750672 14.18907359 24.5693799 10.65234375 14.28515625 C7.98853601 7.97613793 4.45445658 3.97722829 -1.7265625 0.88671875 C-11.05020663 -2.31036164 -21.60253227 -0.40375966 -28.1953125 7.16015625 Z"/>
    <path transform="translate(279.14453125,418.47265625)" fill="#5608A4"
          d="M0 0 C6.66984038 5.23440163 10.54169124 12.15709117 11.85546875 20.52734375 C12.00463282 24.7039378 11.84087651 28.46253675 10.85546875 32.52734375 C10.19546875 32.19734375 9.53546875 31.86734375 8.85546875 31.52734375 C8.901875 30.70492187 8.94828125 29.8825 8.99609375 29.03515625 C9.30167494 19.5839666 7.82346178 13.15392113 2.73046875 5.21484375 C-4.24016656 -1.30118491 -10.94778278 -3.12782475 -20.37768555 -2.92797852 C-27.4033718 -2.58544595 -33.28291647 -1.15198073 -38.6171875 3.7578125 C-42.45728382 8.20682434 -45.22090324 13.45485972 -48.14453125 18.52734375 C-48.68819336 19.46433105 -49.23185547 20.40131836 -49.79199219 21.36669922 C-53.6386472 27.9963273 -57.46310443 34.63851797 -61.28027344 41.28515625 C-64.03737039 46.08010747 -66.80869165 50.86677424 -69.58203125 55.65234375 C-70.04843018 56.45752441 -70.5148291 57.26270508 -70.99536133 58.09228516 C-72.04488362 59.90408781 -73.09467201 61.71573632 -74.14453125 63.52734375 C-74.80453125 62.86734375 -75.46453125 62.20734375 -76.14453125 61.52734375 C-75.48988892 60.41383545 -75.48988892 60.41383545 -74.82202148 59.27783203 C-73.50122653 57.03032386 -72.1810801 54.78244305 -70.86157227 52.53417969 C-69.32952186 49.92390586 -67.79440683 47.31546503 -66.25756836 44.70800781 C-62.44028797 38.22086677 -58.66897444 31.71646116 -55.02734375 25.12890625 C-54.37616223 23.9618369 -53.72455891 22.79500279 -53.07250977 21.62841797 C-51.86478907 19.45891473 -50.67155301 17.28125796 -49.49584961 15.09423828 C-44.87220694 6.83749512 -38.06850274 -2.27646756 -28.53515625 -5.10546875 C-17.80279851 -6.75390278 -8.96278713 -6.15477367 0 0 Z"/>
    <path transform="translate(121,412)" fill="#05E8CA"
          d="M0 0 C10.18145091 0.23828928 17.99997529 3.36341536 25.11938477 10.70263672 C29.05854374 15.51472109 31.89054957 21.0680051 34.875 26.5 C35.58765044 27.77583664 36.30169112 29.05089768 37.01708984 30.32519531 C38.07256262 32.2053099 39.12742391 34.0857161 40.17800903 35.96856689 C42.58335337 40.27820029 45.05402749 44.53751729 47.625 48.75 C52.0903401 56.10970013 56.42071655 63.54567066 60.74707031 70.98779297 C63.51874546 75.75383294 66.29771669 80.51436466 69.12109375 85.25 C69.82407593 86.43166748 69.82407593 86.43166748 70.54125977 87.63720703 C71.40920869 89.0934801 72.28061457 90.5477002 73.15600586 91.99951172 C76 96.77838901 76 96.77838901 76 99 C75.34 99 74.68 99 74 99 C73.6376123 98.35562988 73.27522461 97.71125977 72.90185547 97.04736328 C71.22768637 94.07242391 69.55135506 91.09870811 67.875 88.125 C67.02035156 86.60519531 67.02035156 86.60519531 66.1484375 85.0546875 C63.03525191 79.5358585 59.86369013 74.06318673 56.5859375 68.640625 C54.08365553 64.47426389 51.64013366 60.27363268 49.18969727 56.07666016 C47.73790639 53.59044245 46.28102616 51.10730683 44.82006836 48.62646484 C44.05707381 47.33043608 43.29413467 46.0343747 42.53125 44.73828125 C42.15186783 44.09377014 41.77248566 43.44925903 41.38160706 42.78521729 C39.19101477 39.05510893 37.03064066 35.30988835 34.90040588 31.54499817 C33.30289022 28.7296505 31.67946476 25.92920984 30.0625 23.125 C29.49732666 22.10462646 28.93215332 21.08425293 28.34985352 20.03295898 C23.78092572 12.19098626 17.97310762 6.11024376 8.9609375 3.66015625 C7.77757812 3.46292969 6.59421875 3.26570313 5.375 3.0625 C3.56128906 2.73958984 3.56128906 2.73958984 1.7109375 2.41015625 C0.81632812 2.27480469 -0.07828125 2.13945312 -1 2 C-0.67 1.34 -0.34 0.68 0 0 Z"/>
    <path transform="translate(582,505)" fill="#030307"
          d="M0 0 C0.47798724 7.22291835 0.44415706 13.03960111 -4 19 C-10.54657979 26.12993838 -18.47190354 28.83416277 -28 29.25 C-33.2029985 29.16063552 -36.56367354 27.32293226 -40.375 23.8125 C-42.48705374 20.15702238 -42.90940795 17.06840398 -42 13 C-38.28595376 7.03501665 -33.72594479 4.95069624 -27.1706543 3.27807617 C-23.9135182 2.55367859 -20.64934763 1.89195447 -17.375 1.25 C-15.69664062 0.90001953 -15.69664062 0.90001953 -13.984375 0.54296875 C-12.90414062 0.32769531 -11.82390625 0.11242187 -10.7109375 -0.109375 C-9.73431152 -0.30499023 -8.75768555 -0.50060547 -7.75146484 -0.70214844 C-4.90145106 -1.01066812 -2.7605504 -0.71576814 0 0 Z M-17.1875 3.25 C-18.29931641 3.45496094 -19.41113281 3.65992188 -20.55664062 3.87109375 C-31.64087637 5.92679409 -31.64087637 5.92679409 -40.125 12.8125 C-41.2605688 16.94921493 -40.69582512 19.09222908 -39 23 C-34.82941077 27.03605409 -30.38385906 27.34622935 -24.828125 27.28125 C-17.18855729 26.52151399 -10.28946574 23.55393903 -5 18 C-1.19344946 12.67082925 -1.69821023 7.2816981 -2 1 C-7.15087675 1 -12.1447095 2.26730236 -17.1875 3.25 Z"/>
    <path transform="translate(831,510)" fill="#010205"
          d="M0 0 C0.66 0 1.32 0 2 0 C1.2270821 11.98022752 -3.4731025 23.5566277 -12.13671875 32.109375 C-22.02422975 40.18503843 -33.29576561 43.58152715 -46.12890625 42.8125 C-56.00300019 41.27439357 -63.930871 37.12748697 -70 29 C-70.72265625 26.24609375 -70.72265625 26.24609375 -71 24 C-68.6813709 26.23275395 -66.68751176 28.41665099 -64.75 31 C-60.01677429 36.74956252 -51.99482193 39.5031329 -44.76171875 40.22265625 C-32.95655772 40.65570043 -21.79960816 37.17542538 -13 29.18359375 C-5.10549783 20.76165717 -2.1483578 11.14351444 0 0 Z"/>
    <path transform="translate(580,536)" fill="#07080E"
          d="M0 0 C0.99 0.33 1.98 0.66 3 1 C3 4.63 3 8.26 3 12 C13.395 11.505 13.395 11.505 24 11 C24.33 11.99 24.66 12.98 25 14 C17.08 14 9.16 14 1 14 C0.67 10.37 0.34 6.74 0 3 C-1.65 4.65 -3.3 6.3 -5 8 C-5 5 -5 5 -2.5 2.3125 C-1.675 1.549375 -0.85 0.78625 0 0 Z"/>
    <path transform="translate(648,534)" fill="#06060E"
          d="M0 0 C4.33333333 4.33333333 8.66666667 8.66666667 13 13 C12.34 13.33 11.68 13.66 11 14 C9.70756532 12.8758824 8.41607925 11.75067408 7.125 10.625 C6.40570312 9.99851562 5.68640625 9.37203125 4.9453125 8.7265625 C3.5923402 7.52573166 2.2791655 6.2791655 1 5 C1.01160156 5.71027344 1.02320313 6.42054688 1.03515625 7.15234375 C1.04417969 8.07144531 1.05320312 8.99054687 1.0625 9.9375 C1.07410156 10.85402344 1.08570313 11.77054688 1.09765625 12.71484375 C1 15 1 15 0 16 C-1.78071246 16.08726223 -3.5648314 16.10699041 -5.34765625 16.09765625 C-6.42724609 16.09443359 -7.50683594 16.09121094 -8.61914062 16.08789062 C-9.75544922 16.07951172 -10.89175781 16.07113281 -12.0625 16.0625 C-13.20267578 16.05798828 -14.34285156 16.05347656 -15.51757812 16.04882812 C-18.34510351 16.03699747 -21.1725264 16.0205141 -24 16 C-24 15.67 -24 15.34 -24 15 C-16.41 14.67 -8.82 14.34 -1 14 C-1.020625 11.875625 -1.04125 9.75125 -1.0625 7.5625 C-1.08373783 5.37500389 -1.07258946 3.18639453 -1 1 C-0.67 0.67 -0.34 0.34 0 0 Z"/>
    <path transform="translate(405,544)" fill="#09080F"
          d="M0 0 C0.33 0.99 0.66 1.98 1 3 C0.01 4.485 0.01 4.485 -1 6 C-3.61376953 6.34057617 -3.61376953 6.34057617 -6.8828125 6.29296875 C-8.04941406 6.28330078 -9.21601563 6.27363281 -10.41796875 6.26367188 C-11.64128906 6.23853516 -12.86460937 6.21339844 -14.125 6.1875 C-15.35605469 6.17396484 -16.58710938 6.16042969 -17.85546875 6.14648438 C-20.90407843 6.11103543 -23.951825 6.06162079 -27 6 C-26.67 5.01 -26.34 4.02 -26 3 C-25.28344238 3.01571045 -24.56688477 3.0314209 -23.82861328 3.04760742 C-20.59415524 3.10981863 -17.35982281 3.14894649 -14.125 3.1875 C-12.43310547 3.22520508 -12.43310547 3.22520508 -10.70703125 3.26367188 C-9.09248047 3.27817383 -9.09248047 3.27817383 -7.4453125 3.29296875 C-6.45031738 3.3086792 -5.45532227 3.32438965 -4.43017578 3.34057617 C-3.62821777 3.22818604 -2.82625977 3.1157959 -2 3 C-1.34 2.01 -0.68 1.02 0 0 Z"/>
    <path transform="translate(758,536)" fill="#05060F"
          d="M0 0 C0.66 0.33 1.32 0.66 2 1 C2 5.29 2 9.58 2 14 C-5.59 14 -13.18 14 -21 14 C-21 13.67 -21 13.34 -21 13 C-11.1 12.505 -11.1 12.505 -1 12 C-0.67 8.04 -0.34 4.08 0 0 Z"/>
</svg>